<?xml version="1.0" encoding="utf-8"?>
<!-- Generator: Adobe Illustrator 19.2.0, SVG Export Plug-In . SVG Version: 6.00 Build 0)  -->
<svg version="1.1" id="Layer_3" xmlns="http://www.w3.org/2000/svg" xmlns:xlink="http://www.w3.org/1999/xlink" x="0px" y="0px"
	 viewBox="0 0 4399.6 448.6" style="enable-background:new 0 0 4399.6 448.6;" xml:space="preserve">
<style type="text/css">
	.st0{fill:#00479B;}
	.st1{fill:#0051B2;}
	.st2{fill:#0393FF;}
	.st3{fill:#0387FF;}
	.st4{fill:#FFFFFF;}
	@media screen and (max-width: 481px) {
		path {
			fill:red;
		}
	}
</style>
<title>leadgen_logo</title>
<polygon id="long_side" class="st0" points="177.5,0 0,347.8 46.4,434.6 269.5,0 "/>
<polygon id="small_side" class="st1" points="405.4,434.6 447.3,350.4 315.9,87.2 315.9,259.4 "/>
<polygon id="trapezoid" class="st2" points="446.6,350.4 405.6,434.6 46.4,434.6 0,347.3 "/>
<polygon id="triangle" class="st3" points="223.3,260.9 315.9,87.2 402.6,260.9 "/>
<path id="l" class="st4" d="M536,440.7V6.9h74.4v433.8H536z"/>
<path id="e1" class="st4" d="M895.1,325.3h-159c4.1,9.4,10.1,17.9,17.6,24.9c8.1,8.2,17.8,14.7,28.5,19.1c10.6,4.3,22,6.4,33.4,6.4
	c16.6,0,31.4-3.8,44.3-11.5l75.9,30.4c-14.5,16.9-32.5,30.5-52.8,39.8c-20.7,9.5-43.1,14.3-67.4,14.3c-21.5,0.2-42.8-4.1-62.6-12.4
	c-38.5-16.2-69.1-46.8-85.3-85.3c-16.6-39.8-16.6-84.6,0-124.4c16.2-38.5,46.8-69.1,85.3-85.3c40-16.6,85-16.6,125,0
	c38.5,16.2,69.1,46.8,85.3,85.3c8.4,19.8,12.6,41.1,12.4,62.5c0.1,12.3-1.3,24.5-4.2,36.4L895.1,325.3L895.1,325.3z M815.6,201.5
	c-23.5,0-44.1,8.5-61.9,25.5c-7.4,7.3-13.4,16-17.6,25.5h159c-4.2-9.5-10.2-18.2-17.6-25.5C860.5,210,839.9,201.5,815.6,201.5z"/>
<path id="a1" class="st4" d="M1320.6,136.6v304.1h-72.8V288.9c0-24.3-8.5-44.9-25.5-61.9s-37.6-25.5-61.9-25.5
	c-23.2,0-45.5,9.1-61.9,25.5c-17,17-25.5,37.6-25.5,61.9c0,23.9,8.5,44.3,25.5,61.3c7.9,8.4,17.5,14.9,28.2,19.1
	c10.7,4.2,22.2,6.4,33.7,6.4c12.1,0,23.1-2,32.8-6.1l26.1,65c-18.6,9.3-40.3,14-65,14c-22.3,0-42.8-4.1-61.6-12.4
	c-18.4-8-35.1-19.7-48.9-34.3c-13.9-14.8-24.8-32.1-32.2-51c-15.4-40.1-15.4-84.4,0-124.5c7.4-18.9,18.3-36.2,32.2-51
	c13.8-14.6,30.4-26.3,48.9-34.3c18.8-8.3,39.4-12.4,61.6-12.4c19.8,0,37.4,3,52.8,9.1c14.6,5.6,28.3,13.4,40.7,23.1v-24.3H1320.6
	L1320.6,136.6z"/>
<path id="d" class="st4" d="M1673.9,15.1v425.5h-72.8V288.9c0-24.7-8.5-45.3-25.5-61.9c-17-17-37.4-25.5-61.3-25.5
	c-24.3,0-44.9,8.5-61.9,25.5s-25.5,37.6-25.5,61.9c0,23.9,8.5,44.3,25.5,61.3c7.9,8.4,17.5,14.9,28.2,19.1
	c10.7,4.3,22.2,6.4,33.7,6.4c11,0.1,22-1.9,32.2-6.1l26.1,65c-18.6,9.3-40.1,14-64.3,14c-22.3,0-42.8-4.1-61.6-12.4
	c-18.4-8-35.1-19.7-48.9-34.3c-13.9-14.8-24.8-32.1-32.2-51c-15.4-40.1-15.4-84.4,0-124.4c7.4-18.9,18.3-36.2,32.2-51
	c13.8-14.6,30.4-26.3,48.9-34.3c18.8-8.3,39.4-12.4,61.6-12.4c19.4,0,36.8,3,52.2,9.1c14.6,5.6,28.3,13.4,40.7,23.1V15.1H1673.9
	L1673.9,15.1z"/>
<path id="g" class="st4" d="M2151.4,209.4c0.6,6.1,0.9,12.1,0.9,18.2c0.2,29.5-5.7,58.8-17.3,85.9c-22.4,53.1-64.6,95.4-117.8,117.8
	c-54.9,23.1-116.9,23.1-171.8,0c-53.1-22.4-95.4-64.6-117.8-117.8c-23.1-54.9-23.1-116.9,0-171.8c22.4-53.1,64.6-95.4,117.8-117.8
	c27.1-11.6,56.4-17.5,85.9-17.3c30.8,0,59.5,5.8,86.2,17.3c26.2,11.2,49.9,27.4,69.8,47.6l-51,51.6c-13.8-13.9-30.2-24.9-48.3-32.5
	c-18-7.5-37.3-11.3-56.7-11.2c-19.4-0.1-38.6,3.7-56.5,11.2c-36.1,15.5-64.9,44.3-80.4,80.4c-7.5,17.9-11.3,37.1-11.2,56.5
	c-0.1,19.5,3.7,38.8,11.2,56.8c7.5,18.1,18.6,34.5,32.5,48.3c13.7,13.8,30,24.8,48,32.2c17.9,7.3,37.1,11,56.4,10.9
	c19.4,0.1,38.7-3.6,56.8-10.9c18.1-7.3,34.5-18.3,48.2-32.2c18.6-19.1,32-42.8,38.9-68.6h-196.7l18.2-72.8h252.5
	C2150.1,197.3,2150.8,203.3,2151.4,209.4z"/>
<path id="e2" class="st4" d="M2419.4,325.3h-159.1c4.1,9.4,10.1,17.9,17.6,24.9c8.1,8.2,17.8,14.7,28.5,19.1
	c10.6,4.3,22,6.4,33.4,6.4c16.6,0,31.4-3.8,44.3-11.5l75.9,30.4c-14.5,16.9-32.5,30.5-52.8,39.8c-20.7,9.5-43.1,14.3-67.4,14.3
	c-21.5,0.2-42.8-4.1-62.5-12.4c-38.5-16.2-69.1-46.8-85.3-85.3c-16.6-39.8-16.6-84.6,0-124.4c16.2-38.5,46.8-69.1,85.3-85.3
	c40-16.6,85-16.6,125.1,0c38.5,16.2,69.1,46.8,85.3,85.3c8.4,19.8,12.6,41.1,12.4,62.5c0.1,12.3-1.3,24.5-4.2,36.4L2419.4,325.3
	L2419.4,325.3z M2339.9,201.5c-23.5,0-44.1,8.5-61.9,25.5c-7.4,7.3-13.4,16-17.6,25.5h159c-4.2-9.5-10.2-18.2-17.6-25.5
	C2384.8,210,2364.2,201.5,2339.9,201.5L2339.9,201.5z"/>
<path id="n" class="st4" d="M2686.5,128.7c19.8,0,37.8,3.7,54,11.2c15.9,7.3,30.1,17.8,41.6,31c11.7,13.5,20.8,29,26.7,45.8
	c6.4,17.9,9.5,36.8,9.4,55.9v168.1h-72.9V272.5c0-20.2-7.1-37-21.2-50.4c-13.8-13.8-30.4-20.6-49.8-20.6c-19.8,0-36.6,6.9-50.4,20.6
	s-20.6,30.6-20.6,50.4v168.2h-72.9V137.1h72.9v23.1c11.1-9.4,23.6-17.1,37-22.8C2654.1,131.6,2669.5,128.7,2686.5,128.7z"/>
<path id="e3" class="st4" d="M3085.3,325.3h-159c4.1,9.4,10.1,17.9,17.6,24.9c8.1,8.2,17.8,14.7,28.5,19.1c10.6,4.3,22,6.4,33.4,6.4
	c16.6,0,31.4-3.8,44.3-11.5l75.9,30.4c-14.5,16.9-32.5,30.5-52.8,39.8c-20.7,9.5-43.1,14.3-67.4,14.3c-21.5,0.2-42.8-4.1-62.5-12.4
	c-38.5-16.2-69.1-46.8-85.3-85.3c-16.6-39.8-16.6-84.6,0-124.4c16.2-38.5,46.8-69.1,85.3-85.3c40-16.6,85-16.6,125,0
	c38.5,16.2,69.1,46.8,85.3,85.3c8.4,19.8,12.6,41.1,12.4,62.5c0.1,12.3-1.3,24.5-4.2,36.4L3085.3,325.3L3085.3,325.3z M3005.8,201.5
	c-23.5,0-44.1,8.5-61.9,25.5c-7.4,7.3-13.4,16-17.6,25.5h159c-4.2-9.5-10.2-18.2-17.6-25.5C3050.7,210,3030.1,201.5,3005.8,201.5z"
	/>
<path id="r1" class="st4" d="M3310.9,137.1c14.4-6.1,30.6-9.1,48.9-9.1v72.8c-24.3,0-44.9,8.5-61.9,25.5
	c-17,17.8-25.5,38.5-25.5,61.9v152.4h-72.9V136.6h72.9v23.7C3284,150.7,3297,142.9,3310.9,137.1z"/>
<path id="a2" class="st4" d="M3685.7,136.6v304.1h-72.9V288.9c0-24.3-8.5-44.9-25.5-61.9c-17-17-37.6-25.5-61.9-25.5
	c-23.2,0-45.5,9.1-61.9,25.5c-17,17-25.5,37.6-25.5,61.9c0,23.9,8.5,44.3,25.5,61.3c7.9,8.4,17.5,14.9,28.2,19.1
	c10.7,4.2,22.2,6.4,33.7,6.4c12.1,0,23.1-2,32.8-6.1l26.1,65c-18.6,9.3-40.3,14-65,14c-22.3,0-42.8-4.1-61.6-12.4
	c-18.4-8-35.1-19.7-48.9-34.3c-13.9-14.8-24.8-32.1-32.2-51c-15.4-40.1-15.4-84.4,0-124.5c7.4-18.9,18.3-36.2,32.2-51
	c13.8-14.6,30.4-26.3,48.9-34.3c18.8-8.3,39.4-12.4,61.6-12.4c19.8,0,37.4,3,52.8,9.1c14.6,5.6,28.3,13.4,40.7,23.1v-24.3H3685.7
	L3685.7,136.6z"/>
<path id="t" class="st4" d="M3888.5,440.7h-66.8c-13.4,0.1-26.6-2.6-38.9-7.9c-11.8-5-22.6-12.4-31.6-21.5c-9-9.2-16.2-20-21.2-31.9
	c-5.3-12.3-8-25.5-7.9-38.9V75.8l72.9-18.2v115.9h42.5l18.2,72.8H3795v94.1c-0.2,7.3,2.7,14.3,7.9,19.4c4.9,5.1,11.7,8,18.8,7.9
	h48.6L3888.5,440.7z"/>
<path id="o" class="st4" d="M4045.7,128.7c21.5-0.1,42.8,4.1,62.5,12.5c38.5,16.2,69.1,46.8,85.3,85.3c16.6,39.8,16.6,84.6,0,124.4
	c-16.2,38.5-46.8,69.1-85.3,85.3c-40,16.6-85,16.6-125.1,0c-38.5-16.2-69.1-46.8-85.3-85.3c-16.6-39.8-16.6-84.6,0-124.4
	c16.2-38.5,46.8-69.1,85.3-85.3C4002.9,132.8,4024.2,128.5,4045.7,128.7z M4045.7,201.5c-24.3,0-44.9,8.5-61.9,25.5
	c-17,17-25.5,37.6-25.5,61.9c0,23.9,8.5,44.3,25.5,61.3c7.9,8.4,17.5,14.9,28.2,19.1c10.7,4.2,22.2,6.4,33.7,6.4
	c11.4,0.1,22.8-2.1,33.4-6.4c10.7-4.4,20.4-10.9,28.5-19.1c17-17,25.5-37.4,25.5-61.3c0-24.3-8.5-44.9-25.5-61.9
	C4089.8,210,4069.1,201.5,4045.7,201.5L4045.7,201.5z"/>
<path id="r2" class="st4" d="M4350.7,137.1c14.4-6.1,30.7-9.1,48.9-9.1v72.8c-24.3,0-44.9,8.5-61.9,25.5
	c-17,17.8-25.5,38.5-25.5,61.9v152.4h-72.8V136.6h72.9v23.7C4323.8,150.7,4336.8,142.9,4350.7,137.1z"/>
</svg>
